:FULLY-SPECIFIED
:FORCE-ALL-JOINTS-BE-3DOF
:DEGREES
2242
root -0.73289 13.7945 -16.6432 911.846 -26.0697 168.653
lfemur 10.8652 -1.34298 -15.3815
ltibia 32.4814 -0 0
lfoot -23.3824 36.819 -0.000145259
ltoes -44.6171 0 0
rfemur -71.7678 -23.6874 8.98675
rtibia 73.846 -0 0
rfoot -6.93538 14.0242 -0.000431187
rtoes 3.41327 -0 0
lowerback 8.88879 1.99369 -13.3354
upperback -3.11253 0.682486 -2.03264
thorax -8.59939 0.904472 5.18751
lowerneck 0.884845 -11.9945 -12.4221
upperneck 5.34147 -16.7438 10.3546
head 3.3595 -8.4128 4.36617
lclavicle -3.23957e-14 -3.75703e-14 0
lhumerus -69.6562 -17.6718 103.977
lradius 102.083 0 0
lwrist 60.8873 0 0
lhand -11.7385 422.074 0
lfingers 7.12502 0 0
lthumb 14.309 -451.561 0
rclavicle -3.23957e-14 -3.75703e-14 0
rhumerus 48.8974 -9.75633 -58.7764
rradius 17.0658 0 0
rwrist 34.2483 0 0
rhand -19.8962 -402.625 0
rfingers 7.12502 0 0
rthumb 6.44003 287.493 0
2243
root -0.738182 13.7923 -16.6567 911.9 -26.0697 168.639
lfemur 10.9876 -1.30791 -15.4162
ltibia 32.2631 -0 0
lfoot -23.3564 36.8076 -0.000210107
ltoes -44.6949 0 0
rfemur -71.9896 -23.6823 9.04741
rtibia 73.9615 -0 0
rfoot -6.97992 14.0418 -0.000547541
rtoes 3.4884 -0 0
lowerback 8.81033 1.97232 -13.3602
upperback -3.10084 0.661298 -2.0561
thorax -8.53695 0.889746 5.18074
lowerneck 0.881237 -12.0232 -12.3823
upperneck 5.25579 -16.7757 10.3854
head 3.33741 -8.42669 4.36928
lclavicle 4.19249e-14 -7.34509e-14 0
lhumerus -69.6068 -17.7133 103.978
lradius 101.992 0 0
lwrist 60.9427 0 0
lhand -11.6885 421.83 0
lfingers 7.12502 0 0
lthumb 14.3572 -451.313 0
rclavicle 4.19249e-14 -7.34509e-14 0
rhumerus 48.8771 -9.66592 -58.6684
rradius 17.1124 0 0
rwrist 34.0632 0 0
rhand -19.9728 -402.599 0
rfingers 7.12502 0 0
rthumb 6.36605 287.517 0
2244
root -0.745801 13.7866 -16.6712 911.828 -25.9678 168.714
lfemur 11.1101 -1.27276 -15.4509
ltibia 32.0447 -0 0
lfoot -23.3303 36.7961 -0.000269767
ltoes -44.7727 0 0
rfemur -72.2114 -23.6771 9.10803
rtibia 74.077 -0 0
rfoot -7.02446 14.0594 -0.000650207
rtoes 3.56353 -0 0
lowerback 8.77237 1.9861 -13.3246
upperback -3.06658 0.693873 -2.06068
thorax -8.48138 0.899008 5.15182
lowerneck 0.817096 -12.0534 -12.2905
upperneck 5.19321 -16.7955 10.3189
head 3.31793 -8.43312 4.33317
lclavicle 1.30701e-14 6.41081e-14 0
lhumerus -69.5768 -17.7524 103.964
lradius 101.97 0 0
lwrist 60.9675 0 0
lhand -11.6371 421.764 0
lfingers 7.12502 0 0
lthumb 14.4067 -451.244 0
rclavicle 1.30701e-14 6.41081e-14 0
rhumerus 48.9571 -9.72958 -58.8448
rradius 17.0609 0 0
rwrist 34.237 0 0
rhand -20.031 -402.544 0
rfingers 7.12502 0 0
rthumb 6.30988 287.57 0
2245
root -0.751427 13.7849 -16.6824 911.821 -25.9564 168.756
lfemur 11.2325 -1.23753 -15.4854
ltibia 31.8264 -0 0
lfoot -23.3043 36.7847 -0.000324239
ltoes -44.8505 0 0
rfemur -72.4331 -23.6716 9.16863
rtibia 74.1925 -0 0
rfoot -7.06901 14.077 -0.000739184
rtoes 3.63866 -0 0
lowerback 8.75177 1.98223 -13.2884
upperback -3.05347 0.696837 -2.07223
thorax -8.45378 0.895961 5.11932
lowerneck 0.827318 -12.0863 -12.2726
upperneck 5.09905 -16.8326 10.3406
head 3.29266 -8.45041 4.33738
lclavicle 3.18552e-14 3.15074e-14 0
lhumerus -69.5502 -17.8291 103.978
lradius 101.92 0 0
lwrist 60.974 0 0
lhand -11.4733 421.487 0
lfingers 7.12502 0 0
lthumb 14.5646 -450.956 0
rclavicle 3.18552e-14 3.15074e-14 0
rhumerus 49.0162 -9.79698 -58.9419
rradius 17.0006 0 0
rwrist 34.383 0 0
rhand -19.9876 -402.608 0
rfingers 7.12502 0 0
rthumb 6.35176 287.508 0
2246
root -0.744571 13.7787 -16.6844 912.087 -26.101 168.657
lfemur 11.3549 -1.20224 -15.5199
ltibia 31.608 -0 0
lfoot -23.2782 36.7733 -0.000373524
ltoes -44.9284 0 0
rfemur -72.6549 -23.6659 9.2292
rtibia 74.3079 -0 0
rfoot -7.11355 14.0947 -0.000814473
rtoes 3.71379 -0 0
lowerback 8.71656 1.90999 -13.4454
upperback -3.11912 0.575665 -2.0842
thorax -8.48862 0.848208 5.21284
lowerneck 0.83718 -12.0845 -12.2646
upperneck 4.97123 -16.8213 10.3911
head 3.25526 -8.44342 4.35652
lclavicle -1.98971e-14 1.39149e-14 0
lhumerus -69.5126 -17.9156 103.982
lradius 101.903 0 0
lwrist 61.0127 0 0
lhand -11.4366 421.404 0
lfingers 7.12502 0 0
lthumb 14.5998 -450.87 0
rclavicle -1.98971e-14 1.39149e-14 0
rhumerus 49.0884 -9.80695 -58.9766
rradius 16.9413 0 0
rwrist 34.4746 0 0
rhand -19.8966 -402.57 0
rfingers 7.12502 0 0
rthumb 6.43967 287.548 0
2247
root -0.749613 13.7742 -16.6923 912.075 -25.9849 168.651
lfemur 11.4773 -1.16687 -15.5544
ltibia 31.3896 -0 0
lfoot -23.2522 36.7619 -0.000417621
ltoes -45.0062 0 0
rfemur -72.8766 -23.66 9.28974
rtibia 74.4234 -0 0
rfoot -7.15809 14.1123 -0.000876073
rtoes 3.78893 -0 0
lowerback 8.71517 1.9408 -13.501
upperback -3.10714 0.608715 -2.09635
thorax -8.48289 0.86512 5.22502
lowerneck 0.856757 -12.0951 -12.2693
upperneck 4.88642 -16.8291 10.402
head 3.22892 -8.44713 4.36355
lclavicle -3.45264e-14 -1.86858e-14 0
lhumerus -69.49 -17.9925 103.999
lradius 101.886 0 0
lwrist 60.9451 0 0
lhand -11.3131 421.723 0
lfingers 7.12502 0 0
lthumb 14.7188 -451.18 0
rclavicle -3.45264e-14 -1.86858e-14 0
rhumerus 49.115 -9.75354 -58.8849
rradius 16.9172 0 0
rwrist 34.4441 0 0
rhand -19.7968 -402.506 0
rfingers 7.12502 0 0
rthumb 6.53603 287.615 0
2248
root -0.754418 13.7695 -16.7012 912.132 -25.8977 168.594
lfemur 11.5996 -1.13142 -15.5887
ltibia 31.1713 -0 0
lfoot -23.2262 36.7505 -0.000456531
ltoes -45.084 0 0
rfemur -73.0983 -23.6538 9.35025
rtibia 74.5389 -0 0
rfoot -7.20263 14.1299 -0.000923985
rtoes 3.86406 -0 0
lowerback 8.63967 1.97181 -13.5908
upperback -3.0834 0.649518 -2.12027
thorax -8.42336 0.882932 5.24329
lowerneck 0.811883 -12.1514 -12.2993
upperneck 4.83781 -16.8947 10.4248
head 3.23359 -8.47738 4.36699
lclavicle -1.963e-15 2.9768e-14 0
lhumerus -69.4554 -18.124 104.039
lradius 101.883 0 0
lwrist 60.9924 0 0
lhand -11.4368 421.617 0
lfingers 7.12502 0 0
lthumb 14.5997 -451.083 0
rclavicle -1.963e-15 2.9768e-14 0
rhumerus 49.1383 -9.75081 -58.7681
rradius 16.9153 0 0
rwrist 34.427 0 0
rhand -19.6794 -402.511 0
rfingers 7.12502 0 0
rthumb 6.64932 287.614 0
